<svg width="32" height="32" viewBox="0 0 32 32" fill="none" xmlns="http://www.w3.org/2000/svg">
<g clip-path="url(#clip0_2318_2816)">
<path d="M15.623 0.00488281C19.256 0.441943 22.9497 4.67578 22.9502 8.33496V8.61523H27.7539C28.4678 8.61547 29.0361 9.21483 28.999 9.92773L28.0918 27.2734C27.9532 29.9227 25.7642 31.9998 23.1113 32H7.73926C5.06948 32 2.87318 29.8977 2.75684 27.2305L2.00195 9.91699C1.9712 9.20795 2.53734 8.61531 3.24707 8.61523H8.06348V7.98926C8.06369 4.60114 11.6667 0.429697 15.0283 0.00683594C15.0985 -0.00168292 15.5535 -0.00326826 15.623 0.00488281ZM9.08594 13.292C8.71009 13.2921 8.44993 13.678 8.57812 14.0312C9.03043 15.2751 9.85639 17.9089 9.85645 20.5488C9.8564 23.1533 9.05261 25.7519 8.59668 27.0156C8.46078 27.3928 8.73782 27.8065 9.13867 27.8066H14.6416C18.2054 27.8065 22.3408 24.202 22.7695 20.6641C22.7776 20.5964 22.777 20.1507 22.7686 20.082C22.3539 16.8093 18.2774 13.292 14.9785 13.292H9.08594ZM15.3115 16.1455C17.2079 16.1455 19.5653 18.2769 19.8047 20.1582C19.5571 22.1941 17.1641 24.3711 15.1133 24.3711H11.8271C11.7101 24.3709 11.6291 24.2509 11.6709 24.1416C11.898 23.5507 12.4668 21.9063 12.4668 20.2578C12.4667 18.596 11.8892 16.9386 11.666 16.3604C11.6265 16.258 11.7019 16.1456 11.8115 16.1455H15.3115ZM15.3652 1.61133C12.7133 1.94603 9.7173 5.25661 9.7168 7.92969V8.61523H21.2949V8.20898C21.2946 5.31909 18.2343 1.95769 15.3652 1.61133Z" fill="url(#paint0_linear_2318_2816)"/>
</g>
<defs>
<linearGradient id="paint0_linear_2318_2816" x1="1.8382" y1="0" x2="29.1072" y2="0" gradientUnits="userSpaceOnUse">
<stop offset="0.32" stop-color="#FF9800"/>
<stop offset="1" stop-color="#FFE4BC"/>
</linearGradient>
<clipPath id="clip0_2318_2816">
<rect width="32" height="32" fill="white"/>
</clipPath>
</defs>
</svg>
