<svg width="250" height="150" viewBox="0 0 250 150" fill="none" xmlns="http://www.w3.org/2000/svg">
<path d="M68.3682 20.6152C68.6016 20.5862 70.1599 20.5816 70.3955 20.6094C82.8355 22.096 95.4613 36.5613 95.4619 49.0898V49.8848H111.91C114.339 49.8849 116.272 51.9219 116.145 54.3477L113.04 113.341C112.566 122.348 105.124 129.409 96.1035 129.409H43.3213C34.2437 129.409 26.7757 122.261 26.3779 113.192L23.7949 54.3105C23.6892 51.8984 25.6167 49.8848 28.0312 49.8848H44.5381V47.9053C44.5387 36.3031 56.8557 22.0542 68.3682 20.6152ZM52.5928 65C51.4504 65 50.6594 66.1745 51.0498 67.248C52.4238 71.0264 54.9335 79.0257 54.9336 87.0449C54.9335 94.9569 52.4904 102.85 51.1055 106.688C50.6922 107.834 51.5356 109.091 52.7539 109.091H69.4688C80.2944 109.091 92.8579 98.1425 94.1602 87.3955C94.1848 87.1922 94.181 85.8319 94.1553 85.626C92.8956 75.6847 80.5139 65 70.4932 65H52.5928ZM70.9072 73C77.3755 73.0002 85.4147 80.2709 86.2305 86.6875C85.3861 93.6313 77.2253 101.055 70.2305 101.055H59.0215C58.6219 101.054 58.3462 100.647 58.4893 100.273C59.2635 98.2587 61.2031 92.6505 61.2031 87.0273C61.2031 81.358 59.2319 75.7041 58.4707 73.7324C58.3359 73.3833 58.5935 73 58.9678 73H70.9072ZM69.5156 26.0635C60.4336 27.2025 50.1931 38.5098 50.1924 47.6631V49.8848H89.7998V48.6182C89.7993 38.7241 79.3393 27.2413 69.5156 26.0635Z" fill="url(#paint0_linear_2318_2768)"/>
<path d="M131.671 79.5215C136.552 79.5215 142.584 84.7265 143.197 89.5693C143.21 89.6688 143.212 90.3325 143.2 90.4316C142.566 95.6669 136.445 101 131.172 101H123.029C122.436 101 122.025 100.388 122.227 99.8301C122.901 97.9602 124.092 94.1151 124.092 90.2607C124.092 86.3541 122.869 82.4567 122.199 80.6162C122.009 80.0934 122.395 79.5215 122.951 79.5215H131.671ZM127.399 84.541C127.247 84.541 127.141 84.6975 127.196 84.8398C127.507 85.6435 128.311 87.9485 128.311 90.2598C128.311 92.552 127.52 94.8378 127.204 95.6592C127.146 95.8112 127.258 95.9772 127.421 95.9775H131.99C134.842 95.9775 138.168 92.9518 138.513 90.1211C138.18 87.5054 134.903 84.5412 132.267 84.541H127.399Z" fill="#1E3A8A"/>
<path d="M154.021 101.344C152.26 101.344 150.734 100.969 149.442 100.219C148.161 99.4583 147.172 98.4062 146.474 97.0625C145.786 95.7083 145.442 94.1354 145.442 92.3438C145.442 90.5417 145.786 88.9635 146.474 87.6094C147.172 86.2552 148.161 85.2031 149.442 84.4531C150.734 83.6927 152.26 83.3125 154.021 83.3125C155.791 83.3125 157.317 83.6927 158.599 84.4531C159.89 85.2031 160.88 86.2552 161.567 87.6094C162.265 88.9635 162.614 90.5417 162.614 92.3438C162.614 94.1354 162.265 95.7083 161.567 97.0625C160.88 98.4062 159.89 99.4583 158.599 100.219C157.317 100.969 155.791 101.344 154.021 101.344ZM150.364 92.3125C150.364 93.8333 150.672 95.0885 151.286 96.0781C151.901 97.0677 152.817 97.5625 154.036 97.5625C155.244 97.5625 156.156 97.0677 156.771 96.0781C157.385 95.0885 157.692 93.8333 157.692 92.3125C157.692 90.7917 157.385 89.5417 156.771 88.5625C156.156 87.5833 155.244 87.0938 154.036 87.0938C152.817 87.0938 151.901 87.5833 151.286 88.5625C150.672 89.5417 150.364 90.7917 150.364 92.3125ZM176.989 93.5781V83.5312H181.833V101H177.177V97.8281H176.989C176.604 98.849 175.953 99.6719 175.036 100.297C174.13 100.922 173.021 101.229 171.708 101.219C169.948 101.229 168.521 100.651 167.427 99.4844C166.343 98.3073 165.802 96.6979 165.802 94.6562V83.5312H170.646V93.8125C170.646 94.8333 170.922 95.6458 171.474 96.25C172.026 96.8438 172.76 97.1354 173.677 97.125C174.541 97.1354 175.307 96.8385 175.974 96.2344C176.651 95.6302 176.989 94.7448 176.989 93.5781ZM185.708 77.7188H190.552V90.1719H190.817L196.396 83.5312H201.958L195.489 91.1094L202.271 101H196.614L191.864 93.9531L190.552 95.4375V101H185.708V77.7188ZM209.317 101.328C207.651 101.328 206.265 100.896 205.161 100.031C204.067 99.1562 203.521 97.8542 203.521 96.125C203.521 94.8229 203.823 93.8021 204.427 93.0625C205.041 92.3125 205.849 91.7656 206.849 91.4219C207.849 91.0677 208.922 90.8385 210.067 90.7344C211.588 90.5885 212.672 90.4375 213.317 90.2812C213.974 90.1146 214.302 89.75 214.302 89.1875V89.1094C214.302 88.3906 214.073 87.8333 213.614 87.4375C213.156 87.0417 212.494 86.8438 211.63 86.8438C210.765 86.8438 210.057 87.0312 209.505 87.4062C208.963 87.7812 208.604 88.2604 208.427 88.8438L204.021 88.1406C204.437 86.6198 205.312 85.4375 206.646 84.5938C207.989 83.7396 209.656 83.3125 211.646 83.3125C212.937 83.3125 214.151 83.5156 215.286 83.9219C216.432 84.3281 217.359 84.9688 218.067 85.8438C218.776 86.7083 219.13 87.8333 219.13 89.2188V101H214.552V98.5625H214.411C213.984 99.3854 213.349 100.052 212.505 100.562C211.672 101.073 210.609 101.328 209.317 101.328ZM208.13 95.9688C208.13 96.6354 208.369 97.1406 208.849 97.4844C209.338 97.8177 209.953 97.9844 210.692 97.9844C211.755 97.9844 212.625 97.6771 213.302 97.0625C213.989 96.4479 214.333 95.6823 214.333 94.7656V92.9062C214.146 93.0312 213.849 93.1458 213.442 93.25C213.047 93.3542 212.625 93.4427 212.177 93.5156C211.729 93.5781 211.328 93.6354 210.974 93.6875C210.119 93.8125 209.432 94.0573 208.911 94.4219C208.39 94.776 208.13 95.2917 208.13 95.9688Z" fill="#1E3A8A"/>
<defs>
<linearGradient id="paint0_linear_2318_2768" x1="23.2376" y1="20.5908" x2="116.517" y2="20.5908" gradientUnits="userSpaceOnUse">
<stop offset="0.32" stop-color="#1E3A8A"/>
<stop offset="1" stop-color="#3C67E0"/>
</linearGradient>
</defs>
</svg>
