<svg width="160" height="160" viewBox="0 0 160 160" fill="none" xmlns="http://www.w3.org/2000/svg">
<path d="M77.7408 4.03394C78.0676 3.99331 80.2467 3.98727 80.5738 4.02613C97.9498 6.1029 115.584 26.3077 115.585 43.8074V44.9236H140.049C142.64 44.9238 144.702 47.096 144.566 49.6834L139.873 138.861C139.367 148.469 131.428 156 121.807 156H37.4126C27.7301 156 19.764 148.376 19.3394 138.703L15.4331 49.6443C15.3203 47.0712 17.3762 44.9236 19.9517 44.9236H44.4556V42.1531C44.4556 25.9474 61.6602 6.04436 77.7408 4.03394ZM56.8853 66.446C55.3213 66.4461 54.2379 68.0542 54.772 69.5242C56.6535 74.6981 60.0913 85.653 60.0913 96.6345C60.0913 107.469 56.7456 118.278 54.8492 123.534C54.2833 125.103 55.4369 126.823 57.105 126.823H79.9947C94.8189 126.823 112.023 111.831 113.806 97.114C113.84 96.8354 113.835 94.9697 113.799 94.6902C112.074 81.0771 95.1199 66.4462 81.398 66.446H56.8853ZM82.0699 77.0222C91.1006 77.0222 102.324 87.1583 103.462 96.1169C103.463 96.1242 103.463 96.1571 103.462 96.1628C102.284 105.857 90.8923 116.208 81.1265 116.208H65.4615C64.9031 116.208 64.5173 115.637 64.7173 115.116C65.7988 112.302 68.5083 104.469 68.5083 96.615C68.5083 88.696 65.754 80.7983 64.691 78.0447C64.5031 77.5571 64.8657 77.0223 65.3882 77.0222H82.0699ZM79.3492 11.6541C66.6634 13.2452 52.3599 29.0389 52.3599 41.824V44.9236H107.681V43.158C107.681 29.3382 93.0707 13.2993 79.3492 11.6541Z" fill="url(#paint0_linear_2318_2842)"/>
<defs>
<linearGradient id="paint0_linear_2318_2842" x1="14.6548" y1="4" x2="145.085" y2="4" gradientUnits="userSpaceOnUse">
<stop offset="0.32" stop-color="#FF9800"/>
<stop offset="1" stop-color="#FFE4BC"/>
</linearGradient>
</defs>
</svg>
